<?xml version="1.0" encoding="utf-8"?><svg viewBox="0 0 32 32" xmlns="http://www.w3.org/2000/svg" xmlns:xlink="http://www.w3.org/1999/xlink"><style>:root>svg{display:none}:root>svg:target{display:block}</style><svg fill="none" viewBox="0 0 24 16" id="comment" xmlns="http://www.w3.org/2000/svg"><path d="M16.802 5.715C16.802 2.557 13.042 0 8.401 0 3.761 0 0 2.557 0 5.715 0 6.94.57 8.068 1.535 9 .994 10.08.1 10.936.089 10.947a.26.26 0 0 0-.06.31.32.32 0 0 0 .294.172c1.478 0 2.702-.44 3.583-.893 1.3.56 2.839.893 4.495.893 4.64 0 8.401-2.557 8.401-5.714Zm4.928 7.857c.965-.929 1.534-2.061 1.534-3.286 0-2.39-2.16-4.436-5.222-5.29.036.236.052.476.052.719 0 3.782-4.35 6.857-9.693 6.857-.436 0-.86-.029-1.28-.068C8.393 14.557 11.38 16 14.863 16c1.656 0 3.195-.328 4.496-.893.88.454 2.104.893 3.582.893.13 0 .247-.068.295-.171a.261.261 0 0 0-.06-.31c-.013-.012-.905-.865-1.446-1.947Z" fill="orange"/></svg><svg fill="none" viewBox="0 0 19 26" id="map-point" xmlns="http://www.w3.org/2000/svg"><path d="M8.412 25.475C1.317 14.78 0 13.681 0 9.75 0 4.365 4.197 0 9.375 0s9.375 4.365 9.375 9.75c0 3.931-1.317 5.029-8.412 15.725-.465.7-1.46.7-1.926 0Zm.963-11.663c2.157 0 3.906-1.818 3.906-4.062s-1.749-4.063-3.906-4.063-3.906 1.82-3.906 4.063c0 2.244 1.749 4.063 3.906 4.063Z" fill="orange"/></svg><svg fill="none" viewBox="0 0 32 32" id="scroll-down" xmlns="http://www.w3.org/2000/svg"><circle cx="16" cy="16" r="16" fill="#fff"/><path d="m14.99 25.558-7.231-9.704c-.5-.671-.5-1.756 0-2.42l1.201-1.612c.5-.67 1.308-.67 1.803 0l5.126 6.879 5.125-6.879c.5-.67 1.309-.67 1.803 0l1.202 1.613c.5.67.5 1.755 0 2.419l-7.232 9.704c-.489.67-1.297.67-1.797 0Z" fill="#0336FF"/></svg></svg>