<svg width="19" height="26" viewBox="0 0 19 26" fill="none" xmlns="http://www.w3.org/2000/svg">
<path d="M8.41152 25.4754C1.31689 14.7789 0 13.6811 0 9.75C0 4.36521 4.19731 0 9.375 0C14.5527 0 18.75 4.36521 18.75 9.75C18.75 13.6811 17.4331 14.7789 10.3385 25.4754C9.8729 26.1749 8.87705 26.1748 8.41152 25.4754ZM9.375 13.8125C11.5324 13.8125 13.2812 11.9937 13.2812 9.75C13.2812 7.50633 11.5324 5.6875 9.375 5.6875C7.21763 5.6875 5.46875 7.50633 5.46875 9.75C5.46875 11.9937 7.21763 13.8125 9.375 13.8125Z" fill="#FFA500"/>
</svg>
